# Blender 4.0.2
# www.blender.org
o åœ†ç¯
v 0.000000 -0.000075 -1000.000000
v -195.090317 -0.000074 -980.785278
v -382.683441 -0.000070 -923.879517
v -555.570251 -0.000063 -831.469604
v -707.106750 -0.000053 -707.106750
v -831.469604 -0.000042 -555.570251
v -923.879517 -0.000029 -382.683441
v -980.785278 -0.000015 -195.090317
v -1000.000000 0.000000 0.000000
v -980.785278 0.000015 195.090317
v -923.879517 0.000029 382.683441
v -831.469604 0.000042 555.570251
v -707.106750 0.000053 707.106750
v -555.570251 0.000063 831.469604
v -382.683441 0.000070 923.879517
v -195.090317 0.000074 980.785278
v 0.000000 0.000075 1000.000000
v 195.090317 0.000074 980.785278
v 382.683441 0.000070 923.879517
v 555.570251 0.000063 831.469604
v 707.106750 0.000053 707.106750
v 831.469604 0.000042 555.570251
v 923.879517 0.000029 382.683441
v 980.785278 0.000015 195.090317
v 1000.000000 0.000000 0.000000
v 980.785278 -0.000015 -195.090317
v 923.879517 -0.000029 -382.683441
v 831.469604 -0.000042 -555.570251
v 707.106750 -0.000053 -707.106750
v 555.570251 -0.000063 -831.469604
v 382.683441 -0.000070 -923.879517
v 195.090317 -0.000074 -980.785278
v -180.890289 -0.000069 -909.396973
v -354.829102 -0.000065 -856.633179
v 655.638672 -0.000049 -655.638672
v 515.132080 -0.000058 -770.949524
v -180.890289 0.000069 909.396973
v 0.000001 0.000070 927.213135
v -515.132080 -0.000058 -770.949524
v 354.829102 -0.000065 -856.633179
v 180.890289 0.000069 909.396973
v -655.638672 -0.000049 -655.638672
v 180.890289 -0.000069 -909.396973
v 354.829102 0.000065 856.633179
v -770.949524 -0.000039 -515.132080
v 0.000001 -0.000070 -927.213135
v 515.132080 0.000058 770.949524
v -856.633179 -0.000027 -354.829102
v 655.638672 0.000049 655.638672
v -909.396973 -0.000014 -180.890289
v 770.949524 0.000039 515.132080
v -927.213135 0.000000 0.000000
v 856.633179 0.000027 354.829102
v -909.396973 0.000014 180.890289
v 909.396973 0.000014 180.890289
v -856.633179 0.000027 354.829102
v 927.213135 0.000000 0.000000
v -770.949524 0.000039 515.132080
v 909.396973 -0.000014 -180.890289
v -655.638672 0.000049 655.638672
v 856.633179 -0.000027 -354.829102
v -515.132080 0.000058 770.949524
v 770.949524 -0.000039 -515.132080
v -354.829102 0.000065 856.633179
v -195.090317 49.872734 -980.785278
v 0.000000 49.872730 -1000.000000
v -382.683441 49.872738 -923.879517
v -555.570251 49.872746 -831.469604
v -707.106750 49.872753 -707.106750
v -831.469604 49.872765 -555.570251
v -923.879517 49.872776 -382.683441
v -980.785278 49.872791 -195.090317
v -1000.000000 49.872807 -0.000004
v -980.785278 49.872822 195.090317
v -923.879517 49.872837 382.683441
v -831.469604 49.872849 555.570251
v -707.106750 49.872860 707.106750
v -555.570251 49.872868 831.469604
v -382.683441 49.872875 923.879517
v -195.090317 49.872879 980.785278
v 0.000000 49.872883 1000.000000
v 195.090317 49.872879 980.785278
v 382.683441 49.872875 923.879517
v 555.570251 49.872868 831.469604
v 707.106750 49.872860 707.106750
v 831.469604 49.872849 555.570251
v 923.879517 49.872837 382.683441
v 980.785278 49.872822 195.090317
v 1000.000000 49.872807 -0.000004
v 980.785278 49.872791 -195.090317
v 923.879517 49.872776 -382.683441
v 831.469604 49.872765 -555.570251
v 707.106750 49.872753 -707.106750
v 555.570251 49.872746 -831.469604
v 382.683441 49.872738 -923.879517
v 195.090317 49.872734 -980.785278
v -354.829102 49.872742 -856.633179
v 515.132080 49.872749 -770.949524
v 0.000001 49.872875 927.213135
v -515.132080 49.872749 -770.949524
v 354.829102 49.872742 -856.633179
v 180.890289 49.872875 909.396973
v -655.638672 49.872757 -655.638672
v 180.890289 49.872738 -909.396973
v 354.829102 49.872871 856.633179
v -770.949524 49.872768 -515.132080
v 0.000001 49.872738 -927.213135
v 515.132080 49.872864 770.949524
v -856.633179 49.872780 -354.829102
v 655.638672 49.872856 655.638672
v -909.396973 49.872791 -180.890289
v 770.949524 49.872845 515.132080
v -927.213135 49.872807 -0.000004
v 856.633179 49.872833 354.829102
v -909.396973 49.872822 180.890289
v 909.396973 49.872822 180.890289
v -856.633179 49.872833 354.829102
v 927.213135 49.872807 -0.000004
v -770.949524 49.872845 515.132080
v 909.396973 49.872791 -180.890289
v -655.638672 49.872856 655.638672
v 856.633179 49.872780 -354.829102
v -515.132080 49.872864 770.949524
v 770.949524 49.872768 -515.132080
v -354.829102 49.872871 856.633179
v -180.890289 49.872738 -909.396973
v 655.638672 49.872757 -655.638672
v -180.890289 49.872875 909.396973
vn -0.0980 -0.0000 0.9952
vn 0.9569 -0.0000 0.2903
vn -0.2903 -0.0000 0.9569
vn -0.4714 -0.0000 0.8819
vn -0.7730 -0.0000 -0.6344
vn -0.6344 -0.0000 0.7730
vn 0.9952 -0.0000 0.0980
vn -0.7730 -0.0000 0.6344
vn -0.8819 -0.0000 -0.4714
vn 0.9952 -0.0000 -0.0980
vn -0.8819 -0.0000 0.4714
vn -0.9569 -0.0000 -0.2903
vn -0.9569 -0.0000 0.2903
vn 0.9569 -0.0000 -0.2903
vn -0.9952 -0.0000 0.0980
vn -0.9952 -0.0000 -0.0980
vn 0.8819 -0.0000 -0.4714
vn 0.0980 -0.0000 -0.9952
vn 0.7730 -0.0000 -0.6344
vn 0.2903 -0.0000 -0.9569
vn -0.6344 -0.0000 -0.7730
vn 0.4714 -0.0000 -0.8819
vn 0.6344 -0.0000 -0.7730
vn -0.4714 -0.0000 -0.8819
vn 0.2903 -0.0000 0.9569
vn -0.0000 1.0000 -0.0000
vn 0.8819 -0.0000 0.4714
vn 0.0980 -0.0000 0.9952
vn 0.4714 -0.0000 0.8819
vn 0.7730 -0.0000 0.6344
vn 0.6344 -0.0000 0.7730
vn -0.2903 -0.0000 -0.9569
vn -0.0980 -0.0000 -0.9952
vt 0.000000 0.000000
s 0
f 17/1/1 81/1/1 80/1/1 16/1/1
f 48/1/2 109/1/2 111/1/2 50/1/2
f 16/1/3 80/1/3 79/1/3 15/1/3
f 15/1/4 79/1/4 78/1/4 14/1/4
f 49/1/5 110/1/5 112/1/5 51/1/5
f 14/1/6 78/1/6 77/1/6 13/1/6
f 50/1/7 111/1/7 113/1/7 52/1/7
f 13/1/8 77/1/8 76/1/8 12/1/8
f 51/1/9 112/1/9 114/1/9 53/1/9
f 52/1/10 113/1/10 115/1/10 54/1/10
f 12/1/11 76/1/11 75/1/11 11/1/11
f 53/1/12 114/1/12 116/1/12 55/1/12
f 11/1/13 75/1/13 74/1/13 10/1/13
f 54/1/14 115/1/14 117/1/14 56/1/14
f 10/1/15 74/1/15 73/1/15 9/1/15
f 55/1/16 116/1/16 118/1/16 57/1/16
f 9/1/16 73/1/16 72/1/16 8/1/16
f 56/1/17 117/1/17 119/1/17 58/1/17
f 8/1/12 72/1/12 71/1/12 7/1/12
f 57/1/15 118/1/15 120/1/15 59/1/15
f 7/1/9 71/1/9 70/1/9 6/1/9
f 1/1/18 66/1/18 96/1/18 32/1/18
f 58/1/19 119/1/19 121/1/19 60/1/19
f 6/1/5 70/1/5 69/1/5 5/1/5
f 32/1/20 96/1/20 95/1/20 31/1/20
f 59/1/13 120/1/13 122/1/13 61/1/13
f 5/1/21 69/1/21 68/1/21 4/1/21
f 31/1/22 95/1/22 94/1/22 30/1/22
f 60/1/23 121/1/23 123/1/23 62/1/23
f 4/1/24 68/1/24 67/1/24 3/1/24
f 30/1/23 94/1/23 93/1/23 29/1/23
f 33/1/25 126/1/25 97/1/25 34/1/25
f 80/1/26 128/1/26 125/1/26 79/1/26
f 93/1/26 127/1/26 124/1/26 92/1/26
f 65/1/26 126/1/26 107/1/26 66/1/26
f 79/1/26 125/1/26 123/1/26 78/1/26
f 92/1/26 124/1/26 122/1/26 91/1/26
f 78/1/26 123/1/26 121/1/26 77/1/26
f 91/1/26 122/1/26 120/1/26 90/1/26
f 77/1/26 121/1/26 119/1/26 76/1/26
f 90/1/26 120/1/26 118/1/26 89/1/26
f 76/1/26 119/1/26 117/1/26 75/1/26
f 89/1/26 118/1/26 116/1/26 88/1/26
f 75/1/26 117/1/26 115/1/26 74/1/26
f 88/1/26 116/1/26 114/1/26 87/1/26
f 74/1/26 115/1/26 113/1/26 73/1/26
f 87/1/26 114/1/26 112/1/26 86/1/26
f 73/1/26 113/1/26 111/1/26 72/1/26
f 86/1/26 112/1/26 110/1/26 85/1/26
f 72/1/26 111/1/26 109/1/26 71/1/26
f 85/1/26 110/1/26 108/1/26 84/1/26
f 71/1/26 109/1/26 106/1/26 70/1/26
f 84/1/26 108/1/26 105/1/26 83/1/26
f 66/1/26 107/1/26 104/1/26 96/1/26
f 70/1/26 106/1/26 103/1/26 69/1/26
f 83/1/26 105/1/26 102/1/26 82/1/26
f 96/1/26 104/1/26 101/1/26 95/1/26
f 69/1/26 103/1/26 100/1/26 68/1/26
f 82/1/26 102/1/26 99/1/26 81/1/26
f 95/1/26 101/1/26 98/1/26 94/1/26
f 68/1/26 100/1/26 97/1/26 67/1/26
f 81/1/26 99/1/26 128/1/26 80/1/26
f 94/1/26 98/1/26 127/1/26 93/1/26
f 67/1/26 97/1/26 126/1/26 65/1/26
f 47/1/21 108/1/21 110/1/21 49/1/21
f 45/1/27 106/1/27 109/1/27 48/1/27
f 18/1/28 82/1/28 81/1/28 17/1/28
f 44/1/24 105/1/24 108/1/24 47/1/24
f 19/1/25 83/1/25 82/1/25 18/1/25
f 43/1/1 104/1/1 107/1/1 46/1/1
f 20/1/29 84/1/29 83/1/29 19/1/29
f 42/1/30 103/1/30 106/1/30 45/1/30
f 21/1/31 85/1/31 84/1/31 20/1/31
f 41/1/32 102/1/32 105/1/32 44/1/32
f 22/1/30 86/1/30 85/1/30 21/1/30
f 40/1/3 101/1/3 104/1/3 43/1/3
f 23/1/27 87/1/27 86/1/27 22/1/27
f 39/1/31 100/1/31 103/1/31 42/1/31
f 24/1/2 88/1/2 87/1/2 23/1/2
f 38/1/33 99/1/33 102/1/33 41/1/33
f 25/1/7 89/1/7 88/1/7 24/1/7
f 64/1/20 125/1/20 128/1/20 37/1/20
f 36/1/4 98/1/4 101/1/4 40/1/4
f 26/1/10 90/1/10 89/1/10 25/1/10
f 63/1/8 124/1/8 127/1/8 35/1/8
f 34/1/29 97/1/29 100/1/29 39/1/29
f 27/1/14 91/1/14 90/1/14 26/1/14
f 46/1/28 107/1/28 126/1/28 33/1/28
f 37/1/18 128/1/18 99/1/18 38/1/18
f 28/1/17 92/1/17 91/1/17 27/1/17
f 62/1/22 123/1/22 125/1/22 64/1/22
f 2/1/33 65/1/33 66/1/33 1/1/33
f 35/1/6 127/1/6 98/1/6 36/1/6
f 29/1/19 93/1/19 92/1/19 28/1/19
f 3/1/32 67/1/32 65/1/32 2/1/32
f 61/1/11 122/1/11 124/1/11 63/1/11
